<?xml version="1.0" encoding="UTF-8"?>
<svg id="Ebene_1" xmlns="http://www.w3.org/2000/svg" version="1.1" xmlns:xlink="http://www.w3.org/1999/xlink" viewBox="0 0 841.89 425.11">
  <!-- Generator: Adobe Illustrator 29.7.0, SVG Export Plug-In . SVG Version: 2.1.1 Build 138)  -->
  <defs>
    <style>
      .st0 {
        fill: url(#Unbenannter_Verlauf_21);
      }

      .st1 {
        fill: url(#Unbenannter_Verlauf_24);
      }

      .st2 {
        fill: url(#Unbenannter_Verlauf_22);
      }

      .st3 {
        fill: url(#Unbenannter_Verlauf_23);
      }

      .st4 {
        fill: url(#Unbenannter_Verlauf_2);
      }

      .st5 {
        fill: url(#Unbenannter_Verlauf_25);
      }
    </style>
    <linearGradient id="Unbenannter_Verlauf_2" data-name="Unbenannter Verlauf 2" x1="724.43" y1="210.73" x2="131.43" y2="210.73" gradientUnits="userSpaceOnUse">
      <stop offset="0" stop-color="#05739e"/>
      <stop offset="1" stop-color="#42b4e8"/>
    </linearGradient>
    <linearGradient id="Unbenannter_Verlauf_21" data-name="Unbenannter Verlauf 2" y1="210.73" x2="131.43" y2="210.73" xlink:href="#Unbenannter_Verlauf_2"/>
    <linearGradient id="Unbenannter_Verlauf_22" data-name="Unbenannter Verlauf 2" x1="724.43" y1="210.73" x2="131.43" y2="210.73" xlink:href="#Unbenannter_Verlauf_2"/>
    <linearGradient id="Unbenannter_Verlauf_23" data-name="Unbenannter Verlauf 2" x1="724.43" y1="210.82" x2="131.43" y2="210.82" xlink:href="#Unbenannter_Verlauf_2"/>
    <linearGradient id="Unbenannter_Verlauf_24" data-name="Unbenannter Verlauf 2" x1="724.43" y1="207.91" x2="131.43" y2="207.91" xlink:href="#Unbenannter_Verlauf_2"/>
    <linearGradient id="Unbenannter_Verlauf_25" data-name="Unbenannter Verlauf 2" y1="210.85" x2="131.43" y2="210.85" xlink:href="#Unbenannter_Verlauf_2"/>
  </defs>
  <path class="st4" d="M165.5,159.12h-43.79v103.21h23.3v-29.49h20.49c26.25,0,41.29-13.86,41.29-37.89s-15.04-35.83-41.29-35.83ZM164.32,213.38h-19.32v-34.94h19.32c12.98,0,20.35,5.75,20.35,17.25s-7.37,17.69-20.35,17.69Z"/>
  <polygon class="st0" points="285.52 159.12 259.71 205.42 233.32 159.12 209.88 159.12 248.06 229.6 248.06 262.33 271.36 262.33 271.36 229.01 308.96 159.12 285.52 159.12"/>
  <polygon class="st2" points="510.76 159.12 475.87 222.13 441.22 159.12 415.12 159.12 415.12 262.33 436.2 262.33 436.2 192.74 467.99 251.76 483.66 251.76 536.54 159.12 510.76 159.12"/>
  <path class="st3" d="M710.52,228.36c12.53-5.9,19.32-17.4,19.32-33.32,0-22.85-15.33-35.83-42.32-35.83h-44.82v103.21h23.3v-29.49h23.74l16.37,29.49h26.39l-21.97-34.06ZM687.52,213.47h-21.53v-34.94h21.53c12.83,0,20.2,5.75,20.2,17.25s-7.37,17.69-20.2,17.69Z"/>
  <path class="st1" d="M625.05,189.78l-4.78,2.82c-1.82,1.07-3.89,1.64-6,1.64h-10.37l7.98,13.82c.9,1.6.9,3.7,0,5.3l-14.9,25.8c-1,1.6-2.7,2.6-4.6,2.6h-29.8c-1.9,0-3.6-1-4.6-2.6l-14.9-25.8c-.9-1.6-.9-3.7,0-5.3l14.9-25.8c1-1.6,2.7-2.6,4.6-2.6h29.03l6.25,4.45c1.04.74,2.28,1.13,3.55,1.13h11.49c1.09,0,2.16-.29,3.11-.85l12.33-7.27c1.87-1.1,3.01-3.1,3.01-5.27v-4.17c0-2.08-1.06-4.02-2.81-5.14l-12.46-8c-.99-.63-2.13-.97-3.3-.97h-11.22c-1.36,0-2.68.45-3.75,1.28l-5.54,4.3h-41.08c-2.2,0-4.2,1.1-5.3,3l-26.3,45.5c-1.1,1.9-1.1,4.2,0,6.1l26.3,45.5c1.1,1.8,3.1,3,5.3,3h52.6c2.2,0,4.2-1.2,5.3-3l26.3-45.5c1.1-1.9,1.1-4.2,0-6.1l-10.33-17.87ZM617.65,162.62c1.06,0,1.92.86,1.92,1.92s-.86,1.92-1.92,1.92-1.92-.86-1.92-1.92.86-1.92,1.92-1.92ZM617.65,171.9c1.06,0,1.92.86,1.92,1.92s-.86,1.92-1.92,1.92-1.92-.86-1.92-1.92.86-1.92,1.92-1.92Z"/>
  <path class="st5" d="M338.79,187.02c2.94-2.94,6.42-5.2,10.44-6.77,4.02-1.57,8.43-2.35,13.24-2.35,5.1,0,9.8,1.01,14.12,3.02,4.31,2.01,8.24,5.03,11.77,9.05l15.3-14.12c-4.9-5.98-10.96-10.52-18.17-13.61s-15.27-4.63-24.2-4.63c-8.04,0-15.44,1.3-22.21,3.9-6.77,2.6-12.68,6.3-17.72,11.11-5.05,4.81-8.97,10.44-11.77,16.92s-4.19,13.58-4.19,21.33,1.4,14.86,4.19,21.33c2.79,6.47,6.69,12.11,11.69,16.92,5,4.81,10.91,8.51,17.72,11.11,6.81,2.6,14.19,3.9,22.14,3.9,9.02,0,17.14-1.57,24.34-4.71,7.21-3.14,13.26-7.7,18.17-13.68l-15.3-14.12c-3.53,4.12-7.45,7.18-11.77,9.19-4.32,2.01-9.02,3.02-14.12,3.02-4.81,0-9.22-.78-13.24-2.35-4.02-1.57-7.5-3.83-10.44-6.77-2.94-2.94-5.22-6.42-6.84-10.44-1.62-4.02-2.43-8.48-2.43-13.39s.81-9.36,2.43-13.39c1.62-4.02,3.9-7.5,6.84-10.44Z"/>
</svg>
